PathFileType	4	(X/Y/Z)	./resultDataOpenSim/trcMotMarkerGrf/sub09/qtm-04-06.trc
DataRate	CameraRate	NumFrames	NumMarkers	Units	OrigDataRate	OrigDataStartFrame	OrigNumFrames
250.000000	250.000000	11	24	m	250.000000	127	506
Frame#	Time	L.Toe.Tip			R.Toe.Tip			L.Ankle.Lat			R.Ankle.Lat			L.Ankle.Med			R.Ankle.Med			L.Heel			R.Heel			L.Knee.Lat			R.Knee.Lat			L.Knee.Med			R.Knee.Med			L.Thigh.Upper			R.Thigh.Upper			L.ASIS			R.ASIS			V.Sacral			L.Acromium			R.Acromium			C7			L.Elbow			R.Elbow			L.Wrist.Lat			R.Wrist.Lat
		X1	Y1	Z1	X2	Y2	Z2	X3	Y3	Z3	X4	Y4	Z4	X5	Y5	Z5	X6	Y6	Z6	X7	Y7	Z7	X8	Y8	Z8	X9	Y9	Z9	X10	Y10	Z10	X11	Y11	Z11	X12	Y12	Z12	X13	Y13	Z13	X14	Y14	Z14	X15	Y15	Z15	X16	Y16	Z16	X17	Y17	Z17	X18	Y18	Z18	X19	Y19	Z19	X20	Y20	Z20	X21	Y21	Z21	X22	Y22	Z22	X23	Y23	Z23	X24	Y24	Z24

127	0.504	-0.17124232	0.093141446	-0.013142661	-0.59999288	0.039314753	0.082663768	-0.31905865	0.092870804	-0.057949694	-0.74823095	0.056387412	0.10798872	-0.30492674	0.11245386	0.037926159	-0.7308706	0.093405521	0.016765968	-0.38054113	0.039037447	-0.01364459	-0.81433992	0.035482349	0.053527858	-0.33398863	0.5129653	-0.087288278	-0.58471159	0.48621304	0.17645755	-0.34249006	0.50621534	0.03725941	-0.60090035	0.47911055	0.048440774	-0.53346728	0.88198535	-0.13413187	-0.58138007	0.89443592	0.23750567	-0.46601076	0.96645609	-0.066689722	-0.4766944	0.97346874	0.17109512	-0.63543366	1.0314837	0.041258929	-0.46325082	1.4204809	-0.11922155	-0.47910367	1.4281894	0.21033563	-0.5380855	1.4773795	0.045815376	-0.63366068	1.0971412	-0.16912919	-0.55838169	1.0546753	0.3013475	-0.54907628	0.85015977	-0.20188131	-0.2910753	0.97705277	0.24947684
128	0.508	-0.15431083	0.094986875	-0.011047161	-0.60005641	0.039350806	0.082783213	-0.30192744	0.091172933	-0.056899828	-0.74802679	0.056659778	0.10798625	-0.28863446	0.11155388	0.038996457	-0.73070023	0.093307775	0.016623647	-0.36218238	0.035949099	-0.012870904	-0.8143311	0.03557015	0.0533765	-0.32750845	0.51077092	-0.087238576	-0.58198253	0.48528558	0.17699557	-0.33646111	0.50387199	0.037415369	-0.59832468	0.47838875	0.048656062	-0.52678733	0.87998511	-0.13383034	-0.57613407	0.89339729	0.23757689	-0.45936252	0.96469459	-0.066369574	-0.47096817	0.97229904	0.17141403	-0.6290778	1.0297196	0.040606017	-0.45719201	1.4190525	-0.11917225	-0.47339473	1.4267123	0.2104183	-0.53217007	1.4759195	0.045861618	-0.62859536	1.0963893	-0.16929832	-0.55161723	1.0528625	0.30145199	-0.54541211	0.84906049	-0.20248349	-0.28378658	0.9777513	0.24879528
129	0.512	-0.13772893	0.096881742	-0.0090884453	-0.60010202	0.03929183	0.082848694	-0.28501814	0.089667167	-0.055815382	-0.74795722	0.05684121	0.10791076	-0.27257661	0.11081181	0.04008317	-0.73049003	0.093200637	0.016464785	-0.34404623	0.033075596	-0.012100664	-0.8143047	0.035683204	0.053198621	-0.32109193	0.50845615	-0.087158926	-0.57923623	0.48429489	0.17738782	-0.33025613	0.50141443	0.037706244	-0.59558696	0.477532	0.048887916	-0.52008395	0.87788943	-0.13351988	-0.57086913	0.89224702	0.23766376	-0.45268249	0.96286433	-0.066046929	-0.46523608	0.97107124	0.17174496	-0.62251866	1.0278284	0.039543228	-0.45111877	1.4175503	-0.11913553	-0.46764546	1.4251546	0.21049317	-0.5262085	1.4743585	0.045877039	-0.62348794	1.0955525	-0.16948487	-0.54474208	1.0509411	0.30143198	-0.54170255	0.84789046	-0.2031066	-0.27655333	0.9783173	0.24809656
130	0.516	-0.12150741	0.09882694	-0.0072703748	-0.60012539	0.039167914	0.082885871	-0.26839424	0.088326552	-0.05473563	-0.74795508	0.056955076	0.10780391	-0.25680885	0.11018799	0.041165324	-0.73024282	0.0930978	0.016301813	-0.32619943	0.030432635	-0.011316408	-0.81425868	0.035825528	0.05298974	-0.31469582	0.50601433	-0.087061078	-0.57672794	0.48312864	0.17752636	-0.32387448	0.49884265	0.038134706	-0.59274648	0.47653646	0.049099098	-0.51335781	0.87571042	-0.13319891	-0.56557998	0.89101042	0.23774701	-0.44597478	0.96096583	-0.065728809	-0.45949654	0.96979192	0.17208225	-0.61585556	1.0258316	0.038247081	-0.44503159	1.4159748	-0.11911061	-0.46186592	1.4235184	0.21055871	-0.52022254	1.4727174	0.04587417	-0.61833169	1.0946299	-0.16969096	-0.5377536	1.0489425	0.30128363	-0.53794882	0.84663783	-0.20376021	-0.26938875	0.97875372	0.24738093
131	0.52	-0.10564607	0.10082056	-0.0055960302	-0.60012208	0.039038506	0.082926289	-0.25211228	0.087134467	-0.05370407	-0.74794753	0.057020481	0.10770609	-0.24138194	0.10960371	0.042171934	-0.72996969	0.09300445	0.016143694	-0.30869318	0.028023493	-0.010504582	-0.81419841	0.035999681	0.052751243	-0.30827106	0.50346397	-0.086950477	-0.57436182	0.48177891	0.17745012	-0.31737726	0.49614226	0.038659058	-0.5898167	0.47544323	0.049266859	-0.50661336	0.87345751	-0.1328659	-0.56027878	0.88970797	0.23780858	-0.43924506	0.95900312	-0.065414012	-0.453743	0.96846797	0.1724239	-0.60926242	1.0237951	0.037120149	-0.43893343	1.4143304	-0.11909278	-0.45607185	1.4218067	0.21061958	-0.51422421	1.4710211	0.045859053	-0.61312436	1.0936217	-0.16991421	-0.53074622	1.0469115	0.30112755	-0.53416664	0.84529975	-0.20445612	-0.26227953	0.97907034	0.2466707
132	0.524	-0.090145532	0.1028443	-0.0040645732	-0.60009012	0.038941092	0.082980872	-0.23618937	0.086087343	-0.052747603	-0.74789232	0.057059665	0.10762573	-0.22631804	0.1089925	0.043020464	-0.72967291	0.092922616	0.015987641	-0.29153417	0.025824736	-0.0096965631	-0.81413168	0.036204601	0.052492018	-0.30180425	0.50084266	-0.08682155	-0.57180637	0.48034039	0.17731179	-0.31084106	0.4933123	0.039231698	-0.58673618	0.47431172	0.049386209	-0.49985186	0.87113721	-0.13252057	-0.55497502	0.88834867	0.23784258	-0.43248972	0.95698502	-0.065097607	-0.44796673	0.96709932	0.17277058	-0.60282108	1.0217432	0.036385192	-0.4328263	1.4126239	-0.11907861	-0.45026623	1.4200224	0.21068159	-0.50821555	1.4692844	0.045837361	-0.6078688	1.0925283	-0.17015008	-0.52395942	1.0448766	0.30126787	-0.53036279	0.84388991	-0.20520122	-0.25519143	0.97927343	0.2459903
133	0.528	-0.075009576	0.10486705	-0.0026722099	-0.60003562	0.038875155	0.083043393	-0.2206156	0.085177571	-0.051879838	-0.74776931	0.057110782	0.10754327	-0.21158958	0.10836242	0.043701997	-0.72934579	0.092853558	0.015818935	-0.27473198	0.023812188	-0.0089391143	-0.81406239	0.036436979	0.052221292	-0.29532557	0.49817338	-0.086663854	-0.56885768	0.47890097	0.17722962	-0.30435105	0.49037952	0.039802799	-0.58346155	0.47316725	0.049455631	-0.49307512	0.86875904	-0.13215235	-0.54966606	0.88693468	0.23785489	-0.42569534	0.95492306	-0.064780653	-0.44215841	0.96567636	0.17312247	-0.59648133	1.0196335	0.035947874	-0.42671782	1.4108588	-0.11907094	-0.44443809	1.4181678	0.21074176	-0.50219352	1.467499	0.045810697	-0.60256777	1.0913533	-0.17039412	-0.51764317	1.0428358	0.30200669	-0.52649879	0.84243336	-0.20599167	-0.24810766	0.9793548	0.24534253
134	0.532	-0.060243587	0.10685879	-0.0014167074	-0.5999694	0.038824419	0.083107817	-0.20537911	0.08438829	-0.051114415	-0.74758493	0.057215735	0.10742138	-0.19711667	0.10780326	0.044314367	-0.72898861	0.092792951	0.015615687	-0.25832773	0.021979213	-0.0082887861	-0.81398912	0.036693277	0.051941987	-0.28886583	0.49545696	-0.086477386	-0.56556494	0.47748452	0.17722347	-0.29802005	0.48737319	0.040304015	-0.58001448	0.47198608	0.049464828	-0.48628452	0.86633381	-0.1317497	-0.54433738	0.88546136	0.23784724	-0.41885055	0.95282513	-0.064467263	-0.43630797	0.96418707	0.17347971	-0.59016719	1.0174166	0.035611984	-0.42061216	1.4090317	-0.11907458	-0.43856799	1.4162446	0.21078838	-0.49615897	1.4656462	0.045776482	-0.59722305	1.0901042	-0.17064408	-0.51172812	1.0407455	0.30322541	-0.52250084	0.84094658	-0.2068089	-0.24103981	0.97929981	0.2447164
135	0.536	-0.04585422	0.10880064	-0.00029644149	-0.59990315	0.038773602	0.083173183	-0.19047513	0.083701857	-0.050467841	-0.74737602	0.057382886	0.10722702	-0.18282395	0.10739135	0.044958042	-0.72862055	0.09272841	0.015355381	-0.24237184	0.020330028	-0.0078409472	-0.81390731	0.036972743	0.051650008	-0.28242472	0.49269565	-0.086269731	-0.56206957	0.47608338	0.17726348	-0.29194809	0.48429896	0.040674755	-0.57643412	0.47073915	0.049408324	-0.47947376	0.86386868	-0.1313163	-0.53896667	0.88391923	0.23780953	-0.41195391	0.95069168	-0.064157848	-0.43040492	0.9626262	0.17383911	-0.58384534	1.0150878	0.035258126	-0.41448468	1.407132	-0.11909207	-0.43264139	1.4142546	0.21081123	-0.49011669	1.4637192	0.045735654	-0.59183282	1.0887835	-0.17090216	-0.50580312	1.0385375	0.30437076	-0.51831783	0.8394128	-0.20761441	-0.23400435	0.97910294	0.24410649
136	0.54	-0.031848123	0.11068163	0.0006918231	-0.59984424	0.03871344	0.083236211	-0.17591703	0.08309933	-0.0499504	-0.74719093	0.05756722	0.10695664	-0.16872987	0.10709468	0.045629793	-0.72827094	0.092647858	0.015027682	-0.22690126	0.018862306	-0.0076887446	-0.81381329	0.037281431	0.051337477	-0.2759834	0.48990719	-0.086042483	-0.55847664	0.47468341	0.17731342	-0.28615819	0.48114871	0.040902631	-0.57273146	0.46944091	0.049311766	-0.47261526	0.86136144	-0.13087755	-0.53353405	0.88230245	0.23772997	-0.40501258	0.94852015	-0.063851342	-0.42443985	0.96099526	0.17419201	-0.57751117	1.0126846	0.034864071	-0.40829393	1.4051533	-0.11912691	-0.42666058	1.4121998	0.2108118	-0.48406722	1.4617276	0.045694351	-0.58639038	1.0873861	-0.17117129	-0.49954359	1.0361803	0.30501562	-0.51395267	0.83779724	-0.20836614	-0.22700779	0.97877089	0.24351094
137	0.544	-0.018229765	0.11248569	0.0015580473	-0.59978635	0.038641279	0.083285675	-0.16173778	0.082555276	-0.049553143	-0.74705062	0.057717814	0.10664203	-0.15497031	0.10678453	0.046236141	-0.72794659	0.092554934	0.014652761	-0.21191174	0.017537774	-0.0078157745	-0.81370857	0.037629928	0.050996916	-0.26952283	0.48711811	-0.085790473	-0.55485027	0.47326892	0.17734152	-0.28056002	0.47792664	0.041040953	-0.56889648	0.46815189	0.049230595	-0.46567065	0.85880178	-0.13045674	-0.52803049	0.88061103	0.23760678	-0.3980385	0.94631125	-0.063547712	-0.41840819	0.95929607	0.1745323	-0.57116358	1.0102449	0.034455627	-0.40203917	1.4031045	-0.1191792	-0.4206395	1.4100827	0.21080187	-0.47800582	1.4596859	0.045656304	-0.58089372	1.0859088	-0.1714453	-0.49297275	1.0337185	0.30518855	-0.50944191	0.83609144	-0.20905648	-0.2200504	0.97831458	0.2429239
